<?xml version="1.0" encoding="UTF-8"?>
<!-- Generated by Pixelmator Pro 3.5.1 -->
<svg width="1024" height="1024" viewBox="0 0 1024 1024" xmlns="http://www.w3.org/2000/svg">
    <g id="Icon-MacOS-512x5122xpng">
        <filter id="filter1" x="0" y="0" width="1024" height="1024" filterUnits="userSpaceOnUse" primitiveUnits="userSpaceOnUse" color-interpolation-filters="sRGB">
            <feGaussianBlur stdDeviation="23.566497"/>
        </filter>
        <path id="Shadow" fill="#000000" fill-opacity="0.3" fill-rule="evenodd" stroke="none" filter="url(#filter1)" d="M 115 618.75 C 115 731.100098 115 787.275085 138.588242 829.394897 C 155.259079 859.162842 179.837128 883.740906 209.605072 900.411743 C 251.724899 924 307.899933 924 420.25 924 L 605.75 924 C 718.100037 924 774.275085 924 816.394958 900.411743 C 846.162903 883.740906 870.740967 859.162842 887.411804 829.394897 C 911.000061 787.275085 911.000061 731.100098 911.000061 618.75 L 911 435.25 C 911 322.899963 911 266.724915 887.411743 224.605042 C 870.740906 194.837097 846.162842 170.259033 816.394897 153.588196 C 774.275085 129.999939 718.100037 129.999939 605.75 129.999939 L 420.25 130 C 307.899933 130 251.724899 130 209.605072 153.588257 C 179.837128 170.259094 155.259094 194.837158 138.588242 224.605103 C 115 266.724915 115 322.899963 115 435.25 Z"/>
        <path id="Rectangle" fill="#ffffff" fill-rule="evenodd" stroke="none" d="M 100 618.75 C 100 731.100098 100 787.275085 123.588242 829.394897 C 140.259079 859.162842 164.837128 883.740906 194.605072 900.411743 C 236.724899 924 292.899933 924 405.25 924 L 618.75 924 C 731.100037 924 787.275085 924 829.394958 900.411743 C 859.162903 883.740906 883.740967 859.162842 900.411804 829.394897 C 924.000061 787.275085 924.000061 731.100098 924.000061 618.75 L 924 405.25 C 924 292.899963 924 236.724915 900.411743 194.605042 C 883.740906 164.837097 859.162842 140.259033 829.394897 123.588196 C 787.275085 99.999939 731.100037 99.999939 618.749939 99.999939 L 405.25 100 C 292.899933 100 236.724899 100 194.605072 123.588257 C 164.837128 140.259094 140.259094 164.837158 123.588242 194.605103 C 100 236.724915 100 292.899963 100 405.250061 Z"/>
    </g>
</svg>
